<mxfile host="app.diagrams.net" modified="2022-04-12T01:27:09.930Z" agent="5.0 (Windows NT 10.0; Win64; x64) AppleWebKit/537.36 (KHTML, like Gecko) Chrome/100.0.4896.75 Safari/537.36" etag="eAkEGJ6Od2YzC_Si5sH3" version="17.4.0" type="github">
  <diagram id="RXR-y1DdyRROtH35t_Nt" name="第 1 页">
    <mxGraphModel dx="1102" dy="591" grid="1" gridSize="10" guides="1" tooltips="1" connect="1" arrows="1" fold="1" page="1" pageScale="1" pageWidth="827" pageHeight="1169" math="0" shadow="0">
      <root>
        <mxCell id="0" />
        <mxCell id="1" parent="0" />
        <mxCell id="iZs6AOoeGe6oxFdF2lvO-2" value="数据库" style="sketch=0;aspect=fixed;html=1;points=[];align=center;image;fontSize=12;image=img/lib/mscae/Database_General.svg;" vertex="1" parent="1">
          <mxGeometry x="613.1" y="80" width="60.8" height="80" as="geometry" />
        </mxCell>
        <mxCell id="iZs6AOoeGe6oxFdF2lvO-4" value="第三方算法网站" style="verticalLabelPosition=bottom;sketch=0;aspect=fixed;html=1;verticalAlign=top;strokeColor=none;align=center;outlineConnect=0;shape=mxgraph.citrix.site;" vertex="1" parent="1">
          <mxGeometry x="590" y="410" width="107" height="101" as="geometry" />
        </mxCell>
        <mxCell id="iZs6AOoeGe6oxFdF2lvO-6" value="PC浏览器" style="verticalLabelPosition=bottom;sketch=0;aspect=fixed;html=1;verticalAlign=top;strokeColor=none;align=center;outlineConnect=0;shape=mxgraph.citrix.desktop;" vertex="1" parent="1">
          <mxGeometry x="70" y="234" width="114.43" height="126" as="geometry" />
        </mxCell>
        <mxCell id="iZs6AOoeGe6oxFdF2lvO-7" value="web云服务器" style="verticalLabelPosition=bottom;sketch=0;aspect=fixed;html=1;verticalAlign=top;strokeColor=none;align=center;outlineConnect=0;shape=mxgraph.citrix.web_server;" vertex="1" parent="1">
          <mxGeometry x="350" y="234" width="107.1" height="126" as="geometry" />
        </mxCell>
        <mxCell id="iZs6AOoeGe6oxFdF2lvO-19" value="" style="endArrow=none;html=1;rounded=0;strokeWidth=2;" edge="1" parent="1">
          <mxGeometry width="50" height="50" relative="1" as="geometry">
            <mxPoint x="190" y="310" as="sourcePoint" />
            <mxPoint x="340" y="310" as="targetPoint" />
          </mxGeometry>
        </mxCell>
        <mxCell id="iZs6AOoeGe6oxFdF2lvO-20" value="" style="endArrow=none;html=1;rounded=0;strokeWidth=2;" edge="1" parent="1">
          <mxGeometry width="50" height="50" relative="1" as="geometry">
            <mxPoint x="470" y="300" as="sourcePoint" />
            <mxPoint x="587.1" y="180" as="targetPoint" />
          </mxGeometry>
        </mxCell>
        <mxCell id="iZs6AOoeGe6oxFdF2lvO-21" value="" style="endArrow=none;html=1;rounded=0;strokeWidth=2;" edge="1" parent="1" target="iZs6AOoeGe6oxFdF2lvO-4">
          <mxGeometry width="50" height="50" relative="1" as="geometry">
            <mxPoint x="470" y="300" as="sourcePoint" />
            <mxPoint x="570" y="390" as="targetPoint" />
          </mxGeometry>
        </mxCell>
      </root>
    </mxGraphModel>
  </diagram>
</mxfile>
